<svg width="24" height="25" viewBox="0 0 24 25" fill="none" xmlns="http://www.w3.org/2000/svg">
<circle cx="12" cy="12.165" r="12" fill="#9356DC"/>
<path d="M15.5341 18.2559H8.75479V17.0994L12.1133 13.4363C12.598 12.8961 12.9419 12.446 13.1451 12.0859C13.3528 11.7212 13.4567 11.3565 13.4567 10.9918C13.4567 10.5117 13.3205 10.1239 13.0481 9.82848C12.7804 9.53303 12.418 9.3853 11.9609 9.3853C11.4162 9.3853 10.9938 9.55149 10.6937 9.88388C10.3936 10.2163 10.2436 10.671 10.2436 11.248H8.5609C8.5609 10.6341 8.6994 10.0824 8.97638 9.59304C9.25799 9.09908 9.65732 8.71591 10.1744 8.44354C10.696 8.17116 11.2962 8.03498 11.9748 8.03498C12.9535 8.03498 13.7244 8.28196 14.2876 8.77592C14.8555 9.26527 15.1394 9.94389 15.1394 10.8118C15.1394 11.315 14.9963 11.8436 14.7101 12.3975C14.4284 12.9469 13.9645 13.5724 13.3182 14.2741L10.853 16.9125H15.5341V18.2559Z" fill="#F7F7F7"/>
</svg>
