<svg width="24" height="25" viewBox="0 0 24 25" fill="none" xmlns="http://www.w3.org/2000/svg">
<circle cx="12" cy="12.4832" r="12" fill="#9356DC"/>
<path d="M10.7006 12.7644H11.7255C12.2425 12.7598 12.6511 12.6259 12.9512 12.3627C13.2559 12.0996 13.4082 11.7187 13.4082 11.2202C13.4082 10.7401 13.2813 10.3684 13.0273 10.1053C12.7781 9.83754 12.3949 9.70366 11.8778 9.70366C11.4254 9.70366 11.0538 9.83523 10.763 10.0984C10.4721 10.3569 10.3267 10.6962 10.3267 11.1163H8.644C8.644 10.5993 8.78018 10.1284 9.05256 9.70366C9.32955 9.27894 9.71271 8.94886 10.2021 8.71342C10.696 8.47337 11.2477 8.35334 11.8571 8.35334C12.8635 8.35334 13.6529 8.60724 14.2253 9.11506C14.8024 9.61825 15.0909 10.32 15.0909 11.2202C15.0909 11.6726 14.9455 12.0996 14.6547 12.5012C14.3684 12.8983 13.9968 13.1983 13.5398 13.4015C14.0938 13.5907 14.5138 13.8885 14.8001 14.2947C15.0909 14.701 15.2363 15.1857 15.2363 15.7489C15.2363 16.6538 14.9247 17.3739 14.3015 17.9094C13.6829 18.445 12.8681 18.7127 11.8571 18.7127C10.8876 18.7127 10.0936 18.4542 9.47496 17.9371C8.85636 17.4201 8.54705 16.7322 8.54705 15.8736H10.2298C10.2298 16.3168 10.3775 16.6768 10.6729 16.9538C10.973 17.2308 11.3746 17.3693 11.8778 17.3693C12.3995 17.3693 12.8104 17.2308 13.1104 16.9538C13.4105 16.6768 13.5605 16.2752 13.5605 15.7489C13.5605 15.218 13.4036 14.8095 13.0897 14.5233C12.7757 14.237 12.3095 14.0939 11.6909 14.0939H10.7006V12.7644Z" fill="white"/>
</svg>
