<svg width="140" height="27" viewBox="0 0 140 27" fill="none" xmlns="http://www.w3.org/2000/svg">
<path d="M7.466 8.478C9.098 8.478 10.298 8.808 11.066 9.468C11.846 10.128 12.236 10.992 12.236 12.06C12.236 12.42 12.188 12.822 12.092 13.266C11.864 14.25 11.438 15.114 10.814 15.858C10.19 16.59 9.422 17.16 8.51 17.568C7.61 17.964 6.632 18.162 5.576 18.162C3.908 18.162 2.672 17.832 1.868 17.172C1.076 16.5 0.68 15.612 0.68 14.508C0.68 14.136 0.728 13.722 0.824 13.266C1.052 12.33 1.484 11.502 2.12 10.782C2.768 10.05 3.554 9.486 4.478 9.09C5.414 8.682 6.41 8.478 7.466 8.478ZM7.412 10.08C7.16 10.08 6.89 10.308 6.602 10.764C6.326 11.208 5.996 12.054 5.612 13.302C5.228 14.55 5.036 15.426 5.036 15.93C5.036 16.194 5.078 16.374 5.162 16.47C5.246 16.554 5.36 16.596 5.504 16.596C5.756 16.62 6.014 16.404 6.278 15.948C6.554 15.492 6.896 14.604 7.304 13.284C7.676 12.12 7.862 11.274 7.862 10.746C7.862 10.494 7.82 10.32 7.736 10.224C7.664 10.128 7.556 10.08 7.412 10.08ZM22.9949 15.516C22.9709 15.564 22.9589 15.636 22.9589 15.732C22.9589 15.816 22.9769 15.882 23.0129 15.93C23.0609 15.978 23.1209 16.002 23.1929 16.002C23.3369 16.002 23.4569 15.942 23.5529 15.822C23.6609 15.69 23.7329 15.624 23.7689 15.624C23.8289 15.624 23.8769 15.666 23.9129 15.75C23.9489 15.822 23.9669 15.912 23.9669 16.02C23.9789 16.368 23.8649 16.71 23.6249 17.046C23.3849 17.37 23.0309 17.64 22.5629 17.856C22.1069 18.06 21.5549 18.162 20.9069 18.162C20.1149 18.162 19.4849 17.982 19.0169 17.622C18.5489 17.25 18.3089 16.758 18.2969 16.146C18.2969 15.702 18.4049 15.204 18.6209 14.652L19.6109 12.06C19.6709 11.904 19.7009 11.778 19.7009 11.682C19.7009 11.526 19.6469 11.406 19.5389 11.322C19.4429 11.226 19.3229 11.178 19.1789 11.178C18.9509 11.178 18.7169 11.286 18.4769 11.502C18.2489 11.706 18.0629 12.042 17.9189 12.51V12.474L16.7849 16.128C16.7489 16.272 16.7309 16.398 16.7309 16.506C16.7309 16.662 16.7609 16.788 16.8209 16.884C16.8809 16.968 16.9649 17.052 17.0729 17.136C17.1569 17.22 17.2169 17.292 17.2529 17.352C17.2889 17.4 17.2949 17.466 17.2709 17.55C17.2109 17.706 17.0909 17.82 16.9109 17.892C16.7309 17.964 16.4549 18 16.0829 18H11.9789C11.6669 18 11.4389 17.952 11.2949 17.856C11.1509 17.748 11.1029 17.61 11.1509 17.442C11.1989 17.298 11.3249 17.172 11.5289 17.064C11.7089 16.968 11.8589 16.854 11.9789 16.722C12.0989 16.59 12.2009 16.38 12.2849 16.092L15.0209 7.11C15.0569 7.002 15.0749 6.912 15.0749 6.84C15.0749 6.708 15.0389 6.6 14.9669 6.516C14.9069 6.432 14.8229 6.348 14.7149 6.264C14.5949 6.168 14.5049 6.084 14.4449 6.012C14.3969 5.94 14.3909 5.844 14.4269 5.724C14.4989 5.448 14.8769 5.208 15.5609 5.004C16.2449 4.8 16.9589 4.698 17.7029 4.698C18.3989 4.698 18.9089 4.83 19.2329 5.094C19.5689 5.358 19.7369 5.718 19.7369 6.174C19.7369 6.438 19.6949 6.696 19.6109 6.948L18.6389 10.116C19.1069 9.504 19.5989 9.078 20.1149 8.838C20.6429 8.598 21.2129 8.478 21.8249 8.478C22.5569 8.478 23.1449 8.7 23.5889 9.144C24.0449 9.588 24.2729 10.164 24.2729 10.872C24.2729 11.244 24.2129 11.61 24.0929 11.97L22.9949 15.516ZM41.8582 15.516C41.8342 15.564 41.8222 15.636 41.8222 15.732C41.8222 15.816 41.8402 15.882 41.8762 15.93C41.9242 15.978 41.9842 16.002 42.0562 16.002C42.2002 16.002 42.3202 15.942 42.4162 15.822C42.5242 15.69 42.5962 15.624 42.6322 15.624C42.6922 15.624 42.7402 15.666 42.7762 15.75C42.8122 15.822 42.8302 15.912 42.8302 16.02C42.8422 16.368 42.7282 16.71 42.4882 17.046C42.2482 17.37 41.8942 17.64 41.4262 17.856C40.9702 18.06 40.4182 18.162 39.7702 18.162C38.9782 18.162 38.3482 17.982 37.8802 17.622C37.4122 17.25 37.1722 16.758 37.1602 16.146C37.1602 15.702 37.2682 15.204 37.4842 14.652L38.4742 12.06C38.5342 11.904 38.5642 11.778 38.5642 11.682C38.5642 11.526 38.5102 11.406 38.4022 11.322C38.3062 11.226 38.1862 11.178 38.0422 11.178C37.8382 11.178 37.6282 11.268 37.4122 11.448C37.1962 11.628 37.0042 11.91 36.8362 12.294L35.8462 15.516C35.8222 15.564 35.8102 15.636 35.8102 15.732C35.8102 15.816 35.8282 15.882 35.8642 15.93C35.9122 15.978 35.9722 16.002 36.0442 16.002C36.1882 16.002 36.3082 15.942 36.4042 15.822C36.5122 15.69 36.5842 15.624 36.6202 15.624C36.6802 15.624 36.7282 15.666 36.7642 15.75C36.8002 15.822 36.8182 15.912 36.8182 16.02C36.8302 16.368 36.7162 16.71 36.4762 17.046C36.2362 17.37 35.8822 17.64 35.4142 17.856C34.9582 18.06 34.4062 18.162 33.7582 18.162C32.9662 18.162 32.3362 17.982 31.8682 17.622C31.4002 17.25 31.1602 16.758 31.1482 16.146C31.1482 15.702 31.2562 15.204 31.4722 14.652L32.4622 12.06C32.5222 11.904 32.5522 11.778 32.5522 11.682C32.5522 11.526 32.4982 11.406 32.3902 11.322C32.2942 11.226 32.1742 11.178 32.0302 11.178C31.8262 11.178 31.6162 11.268 31.4002 11.448C31.1842 11.616 31.0042 11.892 30.8602 12.276L29.6722 16.128C29.6242 16.26 29.6002 16.386 29.6002 16.506C29.6002 16.65 29.6302 16.77 29.6902 16.866C29.7502 16.95 29.8342 17.04 29.9422 17.136C30.0262 17.208 30.0862 17.274 30.1222 17.334C30.1582 17.394 30.1642 17.466 30.1402 17.55C30.0922 17.706 29.9782 17.82 29.7982 17.892C29.6182 17.964 29.3362 18 28.9522 18H24.8482C24.5362 18 24.3142 17.952 24.1822 17.856C24.0382 17.748 23.9842 17.61 24.0202 17.442C24.0682 17.298 24.1942 17.172 24.3982 17.064C24.5782 16.968 24.7282 16.854 24.8482 16.722C24.9682 16.59 25.0702 16.38 25.1542 16.092L26.7562 10.89C26.7802 10.83 26.7922 10.746 26.7922 10.638C26.7922 10.506 26.7622 10.404 26.7022 10.332C26.6542 10.26 26.5702 10.17 26.4502 10.062C26.3302 9.966 26.2462 9.882 26.1982 9.81C26.1502 9.738 26.1442 9.642 26.1802 9.522C26.2522 9.246 26.6302 9.006 27.3142 8.802C27.9982 8.586 28.7122 8.478 29.4562 8.478C30.0442 8.478 30.5062 8.64 30.8422 8.964C31.1902 9.288 31.3582 9.732 31.3462 10.296C31.8382 9.612 32.3542 9.138 32.8942 8.874C33.4462 8.61 34.0402 8.478 34.6762 8.478C35.3722 8.478 35.9362 8.682 36.3682 9.09C36.8122 9.486 37.0582 10.008 37.1062 10.656C37.6222 9.84 38.1742 9.276 38.7622 8.964C39.3502 8.64 39.9922 8.478 40.6882 8.478C41.4202 8.478 42.0082 8.7 42.4522 9.144C42.9082 9.588 43.1362 10.164 43.1362 10.872C43.1362 11.244 43.0762 11.61 42.9562 11.97L41.8582 15.516ZM52.9658 8.478C53.4938 8.478 53.9138 8.694 54.2258 9.126C54.5498 9.546 54.7118 10.122 54.7118 10.854C54.7118 11.49 54.5978 12.174 54.3698 12.906C53.9258 14.382 53.2118 15.774 52.2278 17.082C51.2558 18.39 50.1338 19.44 48.8618 20.232C47.6018 21.024 46.3418 21.42 45.0818 21.42C44.4578 21.42 43.9178 21.312 43.4618 21.096C43.0178 20.88 42.6818 20.592 42.4538 20.232C42.2138 19.872 42.0938 19.488 42.0938 19.08C42.0938 18.9 42.1238 18.702 42.1838 18.486C42.2918 18.15 42.4718 17.892 42.7238 17.712C42.9758 17.532 43.2758 17.442 43.6238 17.442C44.1758 17.442 44.6258 17.628 44.9738 18C45.3338 18.384 45.5618 18.906 45.6578 19.566C46.4258 19.53 47.1338 19.2 47.7818 18.576C47.1698 18.468 46.7138 18.264 46.4138 17.964C46.1258 17.652 45.9278 17.172 45.8198 16.524L45.0998 12.114C45.0638 11.886 45.0098 11.73 44.9378 11.646C44.8778 11.55 44.7938 11.502 44.6858 11.502C44.6018 11.502 44.4998 11.544 44.3798 11.628C44.2718 11.712 44.1938 11.754 44.1458 11.754C44.0498 11.754 44.0018 11.652 44.0018 11.448C44.0018 11.28 44.0318 11.1 44.0918 10.908C44.3078 10.224 44.7098 9.648 45.2978 9.18C45.8858 8.7 46.5698 8.46 47.3498 8.46C48.1178 8.46 48.6818 8.688 49.0418 9.144C49.4138 9.6 49.6538 10.302 49.7618 11.25L50.3018 15.21C50.3378 15.51 50.4458 15.66 50.6258 15.66C50.8418 15.66 51.0938 15.468 51.3818 15.084C51.6698 14.688 51.9518 14.13 52.2278 13.41C51.8678 13.086 51.5918 12.714 51.3998 12.294C51.2078 11.874 51.1118 11.424 51.1118 10.944C51.1118 10.572 51.1598 10.236 51.2558 9.936C51.3998 9.456 51.6218 9.096 51.9218 8.856C52.2338 8.604 52.5818 8.478 52.9658 8.478ZM61.9319 4.698C63.2159 4.698 64.1759 4.896 64.8119 5.292C65.4599 5.676 65.7839 6.15 65.7839 6.714C65.7839 7.17 65.5919 7.524 65.2079 7.776C64.8359 8.016 64.3439 8.136 63.7319 8.136C63.1679 8.136 62.7299 7.998 62.4179 7.722C62.1059 7.446 61.9499 7.104 61.9499 6.696C61.9499 6.444 62.0279 6.18 62.1839 5.904C61.8239 5.904 61.5239 5.994 61.2839 6.174C61.0439 6.342 60.8579 6.636 60.7259 7.056C60.6539 7.32 60.6179 7.566 60.6179 7.794C60.6179 8.082 60.6659 8.31 60.7619 8.478C60.8699 8.634 61.0199 8.712 61.2119 8.712H62.2739C62.8979 8.712 63.2099 8.904 63.2099 9.288C63.2099 9.336 63.1979 9.408 63.1739 9.504C63.1019 9.768 62.9519 9.966 62.7239 10.098C62.5079 10.23 62.1779 10.296 61.7339 10.296H61.1939L59.4119 16.128C59.3759 16.272 59.3579 16.398 59.3579 16.506C59.3579 16.662 59.3879 16.788 59.4479 16.884C59.5079 16.968 59.5919 17.052 59.6999 17.136C59.7839 17.22 59.8439 17.292 59.8799 17.352C59.9159 17.4 59.9219 17.466 59.8979 17.55C59.8379 17.706 59.7179 17.82 59.5379 17.892C59.3579 17.964 59.0819 18 58.7099 18H54.6059C54.2939 18 54.0659 17.952 53.9219 17.856C53.7779 17.748 53.7299 17.61 53.7779 17.442C53.8259 17.298 53.9519 17.172 54.1559 17.064C54.3359 16.968 54.4859 16.854 54.6059 16.722C54.7259 16.59 54.8279 16.38 54.9119 16.092L56.3159 11.484C56.3759 11.304 56.4059 11.118 56.4059 10.926C56.4059 10.686 56.3519 10.5 56.2439 10.368C56.1479 10.224 55.9979 10.068 55.7939 9.9C55.6619 9.792 55.5599 9.702 55.4879 9.63C55.4279 9.546 55.3979 9.45 55.3979 9.342C55.3859 9.114 55.4639 8.952 55.6319 8.856C55.8119 8.76 56.1479 8.712 56.6399 8.712H57.0899C57.0059 8.412 56.9639 8.112 56.9639 7.812C56.9639 7.512 57.0179 7.2 57.1259 6.876C57.3539 6.264 57.8399 5.748 58.5839 5.328C59.3399 4.908 60.4559 4.698 61.9319 4.698ZM69.0422 8.478C70.6742 8.478 71.8742 8.808 72.6422 9.468C73.4222 10.128 73.8122 10.992 73.8122 12.06C73.8122 12.42 73.7642 12.822 73.6682 13.266C73.4402 14.25 73.0142 15.114 72.3902 15.858C71.7662 16.59 70.9982 17.16 70.0862 17.568C69.1862 17.964 68.2082 18.162 67.1522 18.162C65.4842 18.162 64.2482 17.832 63.4442 17.172C62.6522 16.5 62.2562 15.612 62.2562 14.508C62.2562 14.136 62.3042 13.722 62.4002 13.266C62.6282 12.33 63.0602 11.502 63.6962 10.782C64.3442 10.05 65.1302 9.486 66.0542 9.09C66.9902 8.682 67.9862 8.478 69.0422 8.478ZM68.9882 10.08C68.7362 10.08 68.4662 10.308 68.1782 10.764C67.9022 11.208 67.5722 12.054 67.1882 13.302C66.8042 14.55 66.6122 15.426 66.6122 15.93C66.6122 16.194 66.6542 16.374 66.7382 16.47C66.8222 16.554 66.9362 16.596 67.0802 16.596C67.3322 16.62 67.5902 16.404 67.8542 15.948C68.1302 15.492 68.4722 14.604 68.8802 13.284C69.2522 12.12 69.4382 11.274 69.4382 10.746C69.4382 10.494 69.3962 10.32 69.3122 10.224C69.2402 10.128 69.1322 10.08 68.9882 10.08ZM80.8547 8.478C82.4867 8.478 83.6867 8.808 84.4547 9.468C85.2347 10.128 85.6247 10.992 85.6247 12.06C85.6247 12.42 85.5767 12.822 85.4807 13.266C85.2527 14.25 84.8267 15.114 84.2027 15.858C83.5787 16.59 82.8107 17.16 81.8987 17.568C80.9987 17.964 80.0207 18.162 78.9647 18.162C77.2967 18.162 76.0607 17.832 75.2567 17.172C74.4647 16.5 74.0687 15.612 74.0687 14.508C74.0687 14.136 74.1167 13.722 74.2127 13.266C74.4407 12.33 74.8727 11.502 75.5087 10.782C76.1567 10.05 76.9427 9.486 77.8667 9.09C78.8027 8.682 79.7987 8.478 80.8547 8.478ZM80.8007 10.08C80.5487 10.08 80.2787 10.308 79.9907 10.764C79.7147 11.208 79.3847 12.054 79.0007 13.302C78.6167 14.55 78.4247 15.426 78.4247 15.93C78.4247 16.194 78.4667 16.374 78.5507 16.47C78.6347 16.554 78.7487 16.596 78.8927 16.596C79.1447 16.62 79.4027 16.404 79.6667 15.948C79.9427 15.492 80.2847 14.604 80.6927 13.284C81.0647 12.12 81.2507 11.274 81.2507 10.746C81.2507 10.494 81.2087 10.32 81.1247 10.224C81.0527 10.128 80.9447 10.08 80.8007 10.08ZM95.7632 15.408C95.7392 15.504 95.7272 15.57 95.7272 15.606C95.7272 15.69 95.7512 15.756 95.7992 15.804C95.8472 15.852 95.9072 15.876 95.9792 15.876C96.1232 15.876 96.2432 15.816 96.3392 15.696C96.4472 15.564 96.5192 15.498 96.5552 15.498C96.6152 15.498 96.6632 15.54 96.6992 15.624C96.7352 15.708 96.7532 15.804 96.7532 15.912C96.7652 16.236 96.6392 16.566 96.3752 16.902C96.1232 17.238 95.7812 17.514 95.3492 17.73C94.9172 17.946 94.4492 18.054 93.9452 18.054C93.3452 18.054 92.8232 17.94 92.3792 17.712C91.9352 17.484 91.6292 17.184 91.4612 16.812C91.1372 17.232 90.7652 17.544 90.3452 17.748C89.9252 17.952 89.4812 18.054 89.0132 18.054C88.4612 18.054 87.9452 17.916 87.4652 17.64C86.9972 17.364 86.6192 16.974 86.3312 16.47C86.0552 15.954 85.9172 15.372 85.9172 14.724C85.9172 13.632 86.1212 12.606 86.5292 11.646C86.9492 10.674 87.5312 9.894 88.2752 9.306C89.0192 8.706 89.8652 8.406 90.8132 8.406C91.3292 8.406 91.7672 8.466 92.1272 8.586C92.4992 8.706 92.8352 8.886 93.1352 9.126L93.7472 7.11C93.7832 7.002 93.8012 6.912 93.8012 6.84C93.8012 6.708 93.7652 6.6 93.6932 6.516C93.6332 6.432 93.5492 6.348 93.4412 6.264C93.3212 6.168 93.2312 6.084 93.1712 6.012C93.1232 5.94 93.1172 5.844 93.1532 5.724C93.2252 5.448 93.6032 5.208 94.2872 5.004C94.9712 4.8 95.6852 4.698 96.4292 4.698C97.1252 4.698 97.6352 4.83 97.9592 5.094C98.2952 5.358 98.4632 5.718 98.4632 6.174C98.4632 6.438 98.4212 6.696 98.3372 6.948L95.7632 15.408ZM92.7572 10.35C92.5652 10.182 92.3552 10.098 92.1272 10.098C91.7792 10.098 91.4372 10.356 91.1012 10.872C90.7652 11.388 90.4952 12.012 90.2912 12.744C90.0872 13.476 89.9912 14.136 90.0032 14.724C90.0032 15.384 90.2192 15.714 90.6512 15.714C90.8072 15.714 90.9392 15.654 91.0472 15.534C91.1552 15.402 91.2572 15.192 91.3532 14.904L92.7572 10.35Z" fill="white"/>
</svg>
